With: Kimberly Williams, Scott Cohen and John Larroquette

A young woman named Virginia and her father, Tony are lured into a land where fairy tales are real! But the adventure is only beginning for the longer they stay in fairy tale land the more their lives become one.
 
http://www.imdb.com/title/http://bayimg.com/

General:

Complete name                    : The 10th kingdom\Part 01One.avi
Format                           : AVI
Format/Info                      : Audio Video Interleave
File size                        : 1.96 GiB
Duration                         : 2h 47mn
Overall bit rate                 : 1 682 Kbps

Video:

Format                           : MPEG-4 Visual
Format profile                   : Simple@L3
Format settings, BVOP            : No
Format settings, QPel            : No
Format settings, GMC             : No warppoints
Format settings, Matrix          : Default (H.263)
Codec ID                         : XVID
Codec ID/Hint                    : XviD
Duration                         : 2h 47mn
Bit rate                         : 1 479 Kbps
Width                            : 640 pixels
Height                           : 480 pixels
Display aspect ratio             : 4:3
Frame rate                       : 25.000 fps
Color space                      : YUV
Chroma subsampling               : 4:2:0
Bit depth                        : 8 bits
Scan type                        : Progressive
Bits/(Pixel*Frame)               : 0.193
Stream size                      : 1.73 GiB (88%)
Writing library                  : XviD 1.1.2 (UTC 2006-11-01)

Audio:

Format                           : AC-3
Format/Info                      : Audio Coding 3
Mode extension                   : CM (complete main)
Codec ID                         : 2000
Duration                         : 2h 47mn
Bit rate mode                    : Constant
Bit rate                         : 192 Kbps
Channel(s)                       : 2 channels
Channel positions                : Front: L R
Sampling rate                    : 48.0 KHz
Bit depth                        : 16 bits
Stream size                      : 229 MiB (11%)
Alignment                        : Aligned on interleaves
Interleave, duration             : 32 ms (0.80 video frame)